<svg version="1.1" id="Layer_1" xmlns="http://www.w3.org/2000/svg" xmlns:xlink="http://www.w3.org/1999/xlink" x="0px" y="0px"
	 width="100%" viewBox="0 0 443 416" enable-background="new 0 0 443 416" xml:space="preserve">

<path fill="#85B373" opacity="1.000000" stroke="none" 
	d="
M265.563232,209.944183 
	C258.823822,223.670334 248.086380,233.837326 234.830841,241.427780 
	C230.216721,244.069946 225.301224,246.180588 220.629593,248.728745 
	C213.215546,252.772766 210.894424,257.809998 212.609222,266.142151 
	C215.489761,280.138824 217.394119,294.396149 222.287369,307.888580 
	C227.401810,321.991028 236.599075,328.076050 251.594833,328.118134 
	C259.421906,328.140076 267.287598,328.044159 274.908325,330.079102 
	C284.448822,332.626617 292.303528,337.725281 298.464935,346.665314 
	C247.925598,347.490753 198.235153,348.302338 148.149246,349.120361 
	C148.608322,345.829193 150.769257,344.446259 152.789093,343.219604 
	C169.729706,332.931580 188.065292,326.112335 207.419952,322.169983 
	C211.016113,321.437500 210.854813,320.642090 209.668198,317.925018 
	C202.860229,302.336365 197.318222,286.376312 194.943817,269.403473 
	C191.576340,245.331665 196.262131,222.770569 206.852127,201.159729 
	C213.383255,187.831772 221.456696,175.487122 230.148041,163.189270 
	C230.906311,166.494293 230.918137,166.498596 229.717896,169.791168 
	C223.854279,185.876556 217.408752,201.769852 213.563950,218.522949 
	C212.111984,224.849731 211.037781,231.211548 210.795029,237.741806 
	C210.630798,242.159134 212.329315,242.595657 215.789566,241.052612 
	C225.423737,236.756363 234.019577,230.746613 242.714081,224.883942 
	C250.160370,219.862946 257.198090,214.234451 265.563232,209.944183 
z"/>
<path fill="#85B374" opacity="1.000000" stroke="none" 
	d="
M277.486572,210.503555 
	C279.811920,208.098785 281.925507,205.980057 283.941956,203.772614 
	C284.796692,202.836945 286.410400,201.793289 285.632660,200.494553 
	C284.713684,198.959869 282.878601,199.907257 281.553894,200.287277 
	C277.411255,201.475647 273.287781,202.755066 269.225983,204.194122 
	C265.472748,205.523849 264.877625,204.088364 265.546600,200.702667 
	C267.596466,190.328522 278.169952,180.865021 289.730225,179.080505 
	C299.172882,177.622894 308.591278,178.084045 318.037048,178.998917 
	C320.339752,179.221954 320.963837,179.936218 320.024384,182.079712 
	C315.681946,191.987503 311.259216,201.902740 303.577332,209.752502 
	C297.202759,216.266342 289.139343,218.950439 280.056702,218.290726 
	C277.789154,218.126022 274.581787,218.356903 273.734467,216.253403 
	C272.818878,213.980438 275.854309,212.521637 277.486572,210.503555 
z"/>
<path fill="#85B373" opacity="1.000000" stroke="none" 
	d="
M158.899200,157.892395 
	C171.157761,152.922226 181.730530,155.173828 191.095917,163.702408 
	C192.405914,164.895370 194.322189,166.251007 193.657562,168.193695 
	C193.089920,169.852890 190.900726,169.676254 189.291824,169.951279 
	C185.856796,170.538437 182.411972,171.074356 178.990509,171.731903 
	C177.575363,172.003891 175.341202,171.906509 175.223358,173.501282 
	C175.080124,175.439484 177.404282,175.663910 178.903671,176.219650 
	C182.330063,177.489670 185.828781,178.570694 189.226776,179.909576 
	C193.771973,181.700485 193.983749,182.684418 189.966034,185.655945 
	C182.049194,191.511307 173.107559,192.918976 163.954376,189.585388 
	C153.741287,185.865829 146.003464,178.304688 138.092484,171.155182 
	C135.861206,169.138672 137.358719,168.013290 139.127930,167.074097 
	C145.437881,163.724442 151.573303,159.995056 158.899200,157.892395 
z"/>
<path fill="#86B474" opacity="1.000000" stroke="none" 
	d="
M256.182739,128.427383 
	C256.744202,126.249031 256.895691,124.261467 257.848511,122.794273 
	C260.432861,118.814659 258.759674,116.028366 254.991653,112.369545 
	C254.991653,115.670326 255.077896,118.014198 254.955994,120.347191 
	C254.893127,121.550293 255.743805,123.212433 254.073105,123.848480 
	C252.675552,124.380539 251.538773,123.275627 250.533356,122.447441 
	C247.000763,119.537514 245.300049,115.685760 244.883774,111.181198 
	C244.267380,104.510994 246.333817,98.385017 248.527008,92.251472 
	C249.500397,89.529221 250.701324,90.546776 252.081696,91.751167 
	C257.970184,96.889038 264.026978,101.893990 265.901215,110.615021 
	C268.736694,107.951706 271.005554,105.805382 273.293396,103.679474 
	C274.161896,102.872452 275.181885,101.833839 275.991425,103.631813 
	C280.409088,113.443352 285.959259,123.050934 282.833374,134.494919 
	C281.724640,138.553970 279.714966,142.210693 276.402893,144.979446 
	C275.272125,145.924728 274.019745,147.432831 272.542908,146.721283 
	C271.157562,146.053848 271.309723,144.141098 271.169952,142.658646 
	C270.845276,139.215271 271.425659,135.644623 269.647186,132.045242 
	C266.396515,134.725662 266.016174,138.735062 264.253479,141.954819 
	C263.645630,143.065094 263.556091,144.817123 261.917847,144.821793 
	C260.462036,144.825958 259.758148,143.369888 259.069305,142.279144 
	C256.477142,138.174423 255.894928,133.597305 256.182739,128.427383 
z"/>
<path fill="#86B475" opacity="1.000000" stroke="none" 
	d="
M181.468613,125.713959 
	C180.255249,125.826538 179.076309,125.674568 178.741821,126.135460 
	C178.118942,126.993706 179.142380,127.543793 179.811783,127.967529 
	C181.355469,128.944687 182.966949,129.817642 184.483673,130.833328 
	C185.383698,131.436035 186.944092,131.712616 186.635361,133.194885 
	C186.378387,134.428589 185.038895,134.816910 183.958099,135.150055 
	C178.009827,136.983582 172.468704,136.285522 167.566833,132.235794 
	C166.161530,131.074783 164.740143,129.888657 163.550781,128.518982 
	C159.569489,123.934090 156.582474,119.641624 148.555603,120.167770 
	C139.327530,120.772659 134.447067,111.995537 129.405624,105.162788 
	C128.557510,104.013313 128.635254,102.842438 130.133087,102.449966 
	C137.323807,100.565781 144.479401,97.780945 152.061844,100.293205 
	C155.780197,101.525185 158.792725,103.807686 160.773666,107.344643 
	C162.137711,109.780151 161.345032,110.850266 158.787994,110.606880 
	C156.151108,110.355888 153.544327,109.804985 150.852188,110.186607 
	C153.167740,114.441734 158.929611,117.216324 163.207718,116.283859 
	C168.900574,115.043045 174.627701,113.828598 180.368393,115.970863 
	C181.751114,116.486877 183.127075,117.203690 184.279678,118.114677 
	C186.487885,119.859955 189.567688,122.024071 188.617065,124.776932 
	C187.738052,127.322334 184.219772,125.474342 181.468613,125.713959 
z"/>
<path fill="#86B474" opacity="1.000000" stroke="none" 
	d="
M283.687012,72.110458 
	C283.487213,77.419991 282.511627,82.098137 279.605011,86.152748 
	C278.775543,87.309814 277.933044,88.986099 276.261353,88.722183 
	C274.780334,88.488380 274.733765,86.698990 274.266876,85.510941 
	C272.910248,82.058662 272.586700,78.180504 269.939484,74.481613 
	C267.540497,78.549759 267.879669,82.622902 266.942566,86.343010 
	C266.624603,87.605301 266.719543,89.297928 265.320465,89.698189 
	C263.975647,90.082924 262.876160,88.806847 261.965698,87.889008 
	C256.169006,82.045052 254.780960,74.769508 256.472870,67.147102 
	C258.179779,59.457207 262.440369,52.794430 266.853180,46.314529 
	C267.957245,44.693302 268.984406,44.311874 270.274872,46.012886 
	C276.193756,53.814747 282.508545,61.411217 283.687012,72.110458 
z"/>
<path fill="#86B474" opacity="1.000000" stroke="none" 
	d="
M208.968567,133.940552 
	C207.480972,127.352150 206.936798,121.086349 207.124207,114.751595 
	C207.163223,113.432991 207.017899,111.682564 209.122894,112.430031 
	C220.183990,116.357773 232.036163,119.161339 237.509323,131.442474 
	C237.914322,132.351242 238.417282,133.262329 238.584381,134.222839 
	C239.177658,137.633224 240.616348,142.145248 238.011368,144.105469 
	C235.618332,145.906189 233.454239,141.361588 230.953232,139.988632 
	C229.169006,139.009186 228.000504,136.902573 225.266403,136.762253 
	C225.714478,140.978485 227.835648,144.192719 229.119629,147.688095 
	C229.563461,148.896317 230.611328,150.215622 229.573700,151.393524 
	C228.595596,152.503830 226.997269,152.045044 225.789322,151.701813 
	C216.873154,149.168381 211.313950,143.322021 208.968567,133.940552 
z"/>
<path fill="#85B373" opacity="1.000000" stroke="none" 
	d="
M321.715576,132.027679 
	C324.504395,132.094238 325.611389,132.906067 324.478638,135.441360 
	C321.353363,142.436020 318.175903,149.460724 312.830963,155.052322 
	C307.447510,160.684174 300.607452,162.866379 292.853973,161.615005 
	C290.439758,161.225342 289.095490,160.191483 291.542389,157.800354 
	C293.795532,155.598511 295.855530,153.195694 297.948792,150.835480 
	C298.578430,150.125549 299.493561,149.200729 298.623718,148.288574 
	C298.211853,147.856674 297.030304,147.891022 296.294922,148.084457 
	C293.891602,148.716660 291.536530,149.530548 289.156036,150.251953 
	C287.614807,150.719025 285.779541,151.949081 284.524109,150.557251 
	C283.162201,149.047348 284.202545,147.037979 284.986389,145.422897 
	C288.646515,137.881256 294.539062,133.356766 302.925629,131.989578 
	C309.074524,130.987152 315.166473,131.485001 321.715576,132.027679 
z"/>
<path fill="#86B474" opacity="1.000000" stroke="none" 
	d="
M188.006134,208.965851 
	C185.638290,209.194916 183.709717,209.473999 181.662766,210.857254 
	C185.087769,214.236313 190.139465,213.763168 193.545349,216.529846 
	C190.266296,221.740448 182.441208,224.502899 175.612076,222.533386 
	C167.879639,220.303391 162.026901,215.087570 156.306305,209.738708 
	C155.253494,208.754288 154.954086,207.838959 156.452881,207.045425 
	C163.754623,203.179626 170.754837,198.520691 179.573227,198.843887 
	C183.363159,198.982803 186.738968,200.140991 189.791245,202.282883 
	C191.534286,203.506027 194.067474,204.856842 193.576996,207.045776 
	C193.131638,209.033463 190.300934,208.597092 188.006134,208.965851 
z"/>
<path fill="#87B576" opacity="1.000000" stroke="none" 
	d="
M350.771973,101.696274 
	C355.087494,99.334167 359.518982,98.477440 363.833679,97.287827 
	C365.401764,96.855492 367.102631,96.844604 366.811829,99.175354 
	C365.888123,106.578773 365.438538,114.186401 360.074768,120.138885 
	C358.871613,121.474113 357.351685,122.582626 355.823273,123.552277 
	C353.544708,124.997871 350.503632,126.489914 348.495880,124.683662 
	C346.992676,123.331284 349.614777,120.908173 350.301697,118.930969 
	C350.780518,117.552643 351.933411,116.418152 351.778992,114.220032 
	C348.778564,115.103775 346.770447,117.326828 344.304230,118.675354 
	C343.367981,119.187271 342.443054,120.460960 341.228455,119.512665 
	C340.247986,118.747192 340.195770,117.426453 340.340179,116.275391 
	C341.164093,109.707932 344.327393,104.747566 350.771973,101.696274 
z"/>
<path fill="#87B576" opacity="1.000000" stroke="none" 
	d="
M129.930771,207.172150 
	C125.247276,205.257050 121.276207,202.871445 117.504524,200.139481 
	C116.414688,199.350052 114.976921,198.407471 116.738113,197.132614 
	C123.310928,192.374924 129.731308,187.133286 138.662247,188.058853 
	C139.642151,188.160416 140.634064,188.363724 141.564713,188.682465 
	C144.412949,189.657944 148.188980,190.798492 148.336121,193.717361 
	C148.451218,196.000839 144.276566,195.540085 142.114578,196.545853 
	C140.951569,197.086914 139.452667,196.956146 138.551056,198.378891 
	C140.632675,200.305328 143.454071,199.908340 145.805786,200.822510 
	C146.850464,201.228622 148.404495,200.938492 148.761963,202.250900 
	C149.176010,203.770935 147.746506,204.625092 146.753922,205.375488 
	C141.672638,209.217041 136.130142,209.609222 129.930771,207.172150 
z"/>
<path fill="#87B475" opacity="1.000000" stroke="none" 
	d="
M298.800720,86.475449 
	C296.434265,87.711388 294.307587,88.991280 292.203217,90.306847 
	C288.973145,92.326134 287.916595,90.755226 288.173065,87.694191 
	C288.632141,82.215073 291.418060,77.955147 295.867432,74.900047 
	C300.597534,71.652191 306.061523,70.149933 311.626465,69.073776 
	C313.048096,68.798859 314.992920,68.491402 314.619019,70.953613 
	C313.433197,78.762032 313.385712,87.010712 306.756714,92.877548 
	C306.384277,93.207161 306.048492,93.584610 305.649536,93.876808 
	C302.928955,95.869446 299.447388,98.371521 296.715271,96.387779 
	C294.667450,94.900894 298.140869,91.942505 298.826447,89.532143 
	C298.962738,89.053078 299.107971,88.576569 299.328461,87.743225 
	C299.473724,87.025940 299.363647,86.738098 298.800720,86.475449 
z"/>
<path fill="#86B474" opacity="1.000000" stroke="none" 
	d="
M342.050415,158.716751 
	C339.154449,156.630203 336.368530,159.349884 333.689026,158.489166 
	C332.306854,158.045181 330.262146,158.657516 329.628204,157.204788 
	C328.934540,155.615128 330.859802,154.750931 331.755310,153.653183 
	C333.091461,152.015259 335.104736,150.913895 335.867279,148.263077 
	C332.664490,147.712006 330.089600,149.413193 327.425476,150.197906 
	C324.460327,151.071320 324.361481,150.020493 324.913483,147.617203 
	C326.196655,142.030502 332.089569,136.703583 338.563477,136.145248 
	C343.343964,135.732956 348.186646,136.062973 353.001160,136.015335 
	C355.173859,135.993835 356.082214,136.626923 355.077942,138.939957 
	C352.218994,145.524811 349.235138,151.999634 343.052612,156.950394 
	C342.918823,157.714294 342.864349,157.876266 342.691589,158.244995 
	C342.573364,158.451736 342.265381,158.770111 342.050415,158.716751 
z"/>
<path fill="#87B475" opacity="1.000000" stroke="none" 
	d="
M215.510986,88.297607 
	C215.290054,84.225342 215.116974,80.580360 215.087646,76.934227 
	C215.077942,75.725677 214.862045,73.918236 217.125549,74.695694 
	C224.212280,77.129814 231.278229,79.628395 236.049683,85.944199 
	C236.641830,86.728012 237.109238,87.647125 237.451416,88.571312 
	C238.662430,91.841942 240.591339,96.036789 237.815369,98.316071 
	C235.561066,100.167053 233.670410,95.630989 231.312592,94.412788 
	C230.457626,93.971054 229.865356,92.999336 228.428497,93.201813 
	C228.037521,95.728828 229.545029,97.800110 230.269257,100.044060 
	C230.711517,101.414345 231.924942,102.937195 230.556168,104.154488 
	C229.260971,105.306313 227.686234,104.177811 226.379868,103.631569 
	C219.778015,100.871101 216.351196,95.753502 215.510986,88.297607 
z"/>
<path fill="#87B475" opacity="1.000000" stroke="none" 
	d="
M316.174133,121.256744 
	C312.840881,123.885941 309.670227,125.922836 305.389008,124.726913 
	C305.788116,121.029633 309.178741,118.432419 309.050140,114.380280 
	C305.929504,115.187431 303.946228,117.253906 301.699402,118.818146 
	C299.273193,120.507271 298.311493,119.537735 298.361877,117.114700 
	C298.482025,111.334999 300.483154,106.368546 305.503143,103.090118 
	C310.304443,99.954514 315.813019,98.627182 321.300079,97.290985 
	C323.179443,96.833321 324.241882,97.353539 323.977966,99.459541 
	C323.010712,107.177307 322.660156,115.116364 316.174133,121.256744 
z"/>
<path fill="#86B475" opacity="1.000000" stroke="none" 
	d="
M235.036346,183.848907 
	C237.674774,175.472900 242.926834,171.304108 251.077835,170.965576 
	C254.728455,170.813980 258.394684,171.059891 262.047821,170.940918 
	C265.420410,170.831116 266.734863,171.737457 264.940979,175.182144 
	C262.715393,179.455887 260.743866,183.862366 257.630280,187.611450 
	C254.069595,191.898880 249.340683,193.595139 243.961121,193.457230 
	C242.678268,193.424332 240.659698,193.721375 240.109741,191.907043 
	C239.653152,190.400726 241.245804,189.674606 242.070160,188.694901 
	C243.429382,187.079468 245.406754,185.942993 246.107254,183.395966 
	C243.434387,182.737106 241.343613,184.425095 239.047150,184.699905 
	C237.771408,184.852570 236.011078,187.029495 235.036346,183.848907 
z"/>
<path fill="#87B475" opacity="1.000000" stroke="none" 
	d="
M114.281334,148.076233 
	C119.652931,146.196976 124.173347,147.462387 128.422058,150.165695 
	C129.508331,150.856842 130.992203,151.607300 130.852203,153.085098 
	C130.699219,154.700104 128.944427,154.578125 127.772964,155.048264 
	C125.644302,155.902527 123.126175,155.723526 121.071960,157.595581 
	C124.141708,160.339386 128.505524,159.260574 131.555435,161.508514 
	C128.702057,166.525238 122.953796,169.063416 116.715897,167.735306 
	C110.572678,166.427383 105.406059,163.013824 100.307907,159.529419 
	C98.299492,158.156738 98.685532,157.069885 100.480598,155.776917 
	C104.681274,152.751205 108.965805,149.906281 114.281334,148.076233 
z"/>
<path fill="#87B475" opacity="1.000000" stroke="none" 
	d="
M197.617950,83.406052 
	C200.918411,87.172630 202.736710,91.221344 202.505936,95.895714 
	C202.378448,98.478012 201.351181,100.199905 198.532883,97.689247 
	C196.712860,96.067894 195.200912,94.002159 192.358383,93.002899 
	C191.527634,96.305504 193.523575,98.741989 194.437057,101.345543 
	C195.473267,104.298859 194.619293,105.105347 191.752396,104.278198 
	C185.889587,102.586700 181.996216,98.799133 180.111481,93.041336 
	C178.912674,89.379021 178.837708,85.547432 178.841507,81.717674 
	C178.849716,73.443626 178.820221,73.452545 186.653580,76.917175 
	C190.456116,78.598999 194.162003,80.437180 197.617950,83.406052 
z"/>
<path fill="#88B577" opacity="1.000000" stroke="none" 
	d="
M341.432312,158.936707 
	C341.835449,158.663391 341.918610,158.584778 341.951172,158.566315 
	C342.102753,158.131653 342.307159,157.761490 342.804688,157.196777 
	C343.023682,156.962296 343.012543,157.000732 342.994568,157.008820 
	C348.500031,156.700867 353.855957,157.312897 358.797791,160.015076 
	C359.984100,160.663742 361.804962,160.909790 360.634186,163.174759 
	C358.208405,167.867783 348.980927,172.591919 344.127197,171.373520 
	C342.571564,170.983002 340.427704,170.912766 340.081879,169.034912 
	C339.732056,167.135239 341.993347,167.150650 343.115662,166.336502 
	C343.747192,165.878387 344.694611,165.721313 344.648682,164.580536 
	C342.811523,163.024277 339.683197,165.381149 338.517395,163.092224 
	C337.753235,161.591873 339.789032,160.291779 341.432312,158.936707 
z"/>
<path fill="#89B678" opacity="1.000000" stroke="none" 
	d="
M337.336060,200.783279 
	C334.448181,201.151001 331.962036,201.326752 329.652802,200.040176 
	C328.514099,199.405731 326.922729,198.913818 326.995911,197.420135 
	C327.064514,196.020905 328.692169,196.122925 329.751160,195.753250 
	C330.682190,195.428299 331.598358,195.060806 332.614563,194.676773 
	C331.255524,192.073242 328.102020,193.632950 326.599426,191.746109 
	C329.622162,187.266663 332.833710,186.261887 338.343994,188.466370 
	C341.543274,189.746323 346.352173,190.945816 346.626465,193.987137 
	C346.923523,197.280609 341.941467,198.285828 339.095154,200.069000 
	C338.677856,200.330414 338.187408,200.475052 337.336060,200.783279 
z"/>
<path fill="#85B373" opacity="1.000000" stroke="none" 
	d="
M265.839600,209.844254 
	C265.967438,209.579422 266.171387,209.386703 266.375336,209.194000 
	C266.414886,209.429840 266.454437,209.665710 266.281158,209.980865 
	C266.068329,210.060150 265.915680,209.916367 265.839600,209.844254 
z"/>

</svg>